<svg xmlns="http://www.w3.org/2000/svg" width="1200" height="320" viewBox="0 0 1200 320">
<rect width="1200" height="320" rx="24" fill="#080809"/>
<rect x="1" y="1" width="1198" height="318" rx="23" fill="none" stroke="#fff" stroke-opacity=".10"/>
<text x="48" y="48" fill="#676870" font-family="monospace" font-size="10" letter-spacing="1.6">FEATURED / LOCAL GENERATIVE AI</text>
<text x="48" y="132" fill="#f4f4f5" font-family="Arial,Helvetica,sans-serif" font-size="44" font-weight="700" letter-spacing="-2">Forge3D</text>
<text x="48" y="177" fill="#9899a0" font-family="Arial,Helvetica,sans-serif" font-size="15">A local image-to-3D generation engine with a GPU-aware multi-stage pipeline.</text>
<text x="48" y="204" fill="#9899a0" font-family="Arial,Helvetica,sans-serif" font-size="15">Geometry generation, refinement, UV/PBR texturing and validated GLB output.</text>
<rect x="48" y="246" width="74.4" height="28" rx="14" fill="#fff" fill-opacity=".025" stroke="#fff" stroke-opacity=".10"/><text x="85.2" y="264" text-anchor="middle" fill="#898a91" font-family="monospace" font-size="9">TRELLIS</text><rect x="130.4" y="246" width="96.0" height="28" rx="14" fill="#fff" fill-opacity=".025" stroke="#fff" stroke-opacity=".10"/><text x="178.4" y="264" text-anchor="middle" fill="#898a91" font-family="monospace" font-size="9">ULTRASHAPE</text><rect x="234.4" y="246" width="74.4" height="28" rx="14" fill="#fff" fill-opacity=".025" stroke="#fff" stroke-opacity=".10"/><text x="271.6" y="264" text-anchor="middle" fill="#898a91" font-family="monospace" font-size="9">FASTAPI</text><rect x="316.8" y="246" width="60.0" height="28" rx="14" fill="#fff" fill-opacity=".025" stroke="#fff" stroke-opacity=".10"/><text x="346.8" y="264" text-anchor="middle" fill="#898a91" font-family="monospace" font-size="9">REACT</text><rect x="384.8" y="246" width="81.6" height="28" rx="14" fill="#fff" fill-opacity=".025" stroke="#fff" stroke-opacity=".10"/><text x="425.6" y="264" text-anchor="middle" fill="#898a91" font-family="monospace" font-size="9">THREE.JS</text>

        <g transform="translate(860 155)" fill="none" stroke="#fff">
          <path d="M-85 -65L68 -34L86 69L-68 44Z" stroke-opacity=".35"/>
          <path d="M-50 -100L100 -68L86 69L-68 44Z" stroke-opacity=".16"/>
          <path d="M-115 -15L70 -52L123 -10L-52 28Z" stroke-opacity=".12" stroke-dasharray="4 5"/>
          <g fill="#fff" stroke="none" opacity=".38">
            <circle cx="-88" cy="-40" r="2"/><circle cx="-45" cy="70" r="2"/><circle cx="32" cy="-88" r="2"/><circle cx="92" cy="28" r="2"/>
            <circle cx="4" cy="50" r="1.5"/><circle cx="-20" cy="-22" r="1.5"/><circle cx="66" cy="-18" r="1.5"/>
          </g>
        </g>
<text x="1090" y="286" text-anchor="end" fill="#6f7077" font-family="monospace" font-size="10">OPEN REPOSITORY  ↗</text>
</svg>